# xmcd
#
# Track frame offsets:
# 150
# 18864
# 45338
# 81206
# 103627
# 113093
# 140609
# 170522
# 199597
# 222643
# 234863
# 245070
# 271402
# 300754
#
# Disc length: 4339 seconds
#
# Revision: 0
# Processed by: cddbd v1.4PL0 Copyright (c) Steve Scherf et al.
# Submitted via: Audion 3.0.2 (http://www.panic.com/audion/)
#
DISCID=b410f10e
DTITLE=black tape for a blue girl - with a million tear-stained memories [CD2]
DYEAR=1900
DGENRE=
TTITLE0=kinski (steve roach remix)
TTITLE1=with a million tears
TTITLE2=for you will burn your wings upon the sun (part 4)
TTITLE3=fitful
TTITLE4=like a dog/letter to brod (part 1)
TTITLE5=the apotheosis
TTITLE6=the green box
TTITLE7=the christ in the desert
TTITLE8=slow blur
TTITLE9=das liselottenbett
TTITLE10=dark skinned and inviting
TTITLE11=seven
TTITLE12=beneath the icy floe
TTITLE13=we watched our sad-eyed angel fall
EXTD=
EXTT0=
EXTT1=
EXTT2=
EXTT3=
EXTT4=
EXTT5=
EXTT6=
EXTT7=
EXTT8=
EXTT9=
EXTT10=
EXTT11=
EXTT12=
EXTT13=
PLAYORDER=
